<svg width="1136" height="1533" viewBox="0 0 1136 1533" fill="none" xmlns="http://www.w3.org/2000/svg">
<path fill-rule="evenodd" clip-rule="evenodd" d="M769.502 423.757C767.126 393.013 770.808 360.789 758.954 331.567C738.286 283.082 680.33 266.916 635.399 248.457C617.399 243.138 556.83 242.394 535.754 235.355C488.054 219.423 476.657 200.441 438.755 230.776C432.357 235.958 428.354 241.59 425.434 249.285L425.554 249.318C424.72 252.526 425.614 255.727 427.493 258.172C411.059 274.97 404.182 300.154 412.614 322.515C440.131 380.704 438.837 412.167 429.971 474.723C418.393 533.123 444.85 554.456 488.666 586.232C486.882 589.691 486.512 594.288 488.838 597.34C539.505 668.539 635.038 702.533 716.891 666.395C750.116 651.607 764.949 616.224 773.414 584.297C783.275 548.548 786.305 510.878 778.277 474.462C775.039 457.62 770.821 440.9 769.502 423.757Z" fill="white"/>
<path fill-rule="evenodd" clip-rule="evenodd" d="M477.244 83.1371C483.394 82.2136 488.039 86.0293 490.248 91.4075L490.364 91.6971C491.074 93.5271 491.864 95.3071 492.714 97.0571C508.104 89.5071 530.064 91.4471 539.804 106.737C546.754 117.657 542.514 130.617 539.894 142.197L538.174 149.827C541.499 151.943 544.006 155.732 543.888 159.655L543.874 159.957L543.174 170.597C545.394 168.347 547.424 165.897 549.234 163.287C550.484 160.997 551.834 158.747 553.284 156.567C561.814 143.737 580.964 154.887 573.924 168.627C572.574 171.277 571.054 173.787 569.424 176.207C567.584 179.777 566.074 183.447 564.914 187.217C568.244 188.667 570.804 191.887 571.074 196.747C571.704 208.097 565.744 217.567 556.264 223.517C553.474 225.267 550.594 225.607 547.984 224.957C547.524 225.577 547.064 226.197 546.624 226.827C550.404 229.897 553.814 233.397 556.744 237.277C565.564 235.957 574.434 235.337 583.304 235.317C594.144 230.007 607.124 230.117 618.774 232.107C626.274 233.387 633.474 235.877 640.854 237.667C648.634 239.547 656.534 239.617 664.404 240.897C674.324 242.507 683.024 247.087 688.494 254.397C694.504 254.577 700.824 257.037 706.064 260.377C718.264 268.157 730.394 276.047 742.564 283.877C747.235 286.883 748.981 291.682 748.122 297.035L748.064 297.377L747.654 299.597L748.617 300.963C752.341 306.223 756.394 311.732 758.804 317.537C763.264 323.967 767.294 330.707 770.864 337.657C775.674 346.997 779.644 356.897 782.334 367.057C783.004 369.627 783.674 372.217 784.114 374.837C784.744 378.537 783.774 381.407 783.244 384.957C782.584 389.457 782.344 394.017 781.644 398.527C781.174 401.517 778.634 402.987 775.974 403.067C776.974 410.677 777.694 418.337 778.384 425.937C779.354 436.797 780.014 447.687 780.584 458.577C783.524 462.847 789.534 466.227 793.874 467.397C799.884 469.007 806.184 467.257 811.864 465.207C815.434 463.917 818.364 468.407 816.624 471.407C811.154 480.827 799.454 480.787 790.594 476.617C786.844 474.857 783.554 472.307 781.114 468.987C781.264 472.147 781.424 475.307 781.584 478.477L781.733 481.348C783.535 514.88 787.424 549.566 781.124 582.767C770.214 640.277 722.622 684.067 664.484 687.467C633.976 689.252 608.571 680.241 595.937 675.214C583.304 670.187 588.214 659.938 596.984 662.868C612.092 667.915 639.846 675.434 664.684 672.187C723.224 664.534 772.864 635.275 767.764 509.257C767.041 491.386 764.814 473.507 764.334 455.637C763.874 438.167 764.044 420.687 763.274 403.227L763.017 397.27C762.717 390.309 762.395 383.316 761.874 376.347C761.244 373.647 760.724 370.907 759.954 368.257C757.864 361.047 755.134 354.037 751.744 347.347C750.994 347.917 750.154 348.327 749.244 348.487C742.334 349.727 735.854 349.377 729.384 346.497C726.364 345.167 723.704 343.397 721.224 341.207C720.044 340.177 719.254 339.177 718.634 338.137C715.504 338.187 712.374 337.247 710.414 334.997C708.179 332.433 707.807 329.784 708.682 327.332L708.774 327.087L708.554 327.007C705.914 333.837 700.654 339.847 694.884 343.907C685.764 350.347 674.354 352.207 663.414 352.377C651.334 352.557 638.594 350.697 626.674 348.797C623.524 348.297 620.394 347.727 617.324 346.957C617.204 347.077 617.084 347.217 616.954 347.337C606.724 357.127 592.334 359.647 579.354 354.057C571.854 350.827 565.564 345.627 560.004 339.667C559.924 342.787 559.764 345.907 559.494 348.997L559.382 350.224C558.829 355.979 557.763 362.084 553.414 366.237C546.384 372.967 536.184 370.267 528.074 365.887C528.084 366.097 528.084 366.317 528.084 366.537C530.274 373.977 532.474 381.427 534.674 388.877L535.148 390.464C536.748 395.754 538.502 401.051 538.984 406.587C539.904 417.167 532.864 427.617 521.104 424.067C514.936 422.212 509.994 417.025 505.252 412.871L502.264 410.287C509.994 435.557 515.354 461.727 515.854 488.097C515.884 489.527 514.654 490.607 513.294 490.657C510.114 490.787 506.694 490.157 503.494 488.887C503.314 488.877 503.134 488.867 502.944 488.837C497.484 488.047 492.414 486.077 487.944 483.167C488.974 486.437 489.434 489.947 489.164 493.617C489.094 494.507 487.704 494.817 487.504 493.837C484.924 481.147 470.074 471.557 457.274 473.987C443.534 476.597 433.414 488.417 430.934 501.867C428.274 516.317 433.364 533.027 442.794 544.177C447.134 549.317 452.844 553.607 459.624 554.687C462.724 555.177 465.944 555.007 468.954 554.127C470.234 553.747 471.434 553.217 472.654 552.717C474.434 551.997 476.514 551.887 478.194 551.127C482.004 549.417 485.834 552.927 483.904 556.837C482.224 560.247 480.714 562.547 477.924 564.307C480.184 567.067 482.234 570.907 482.994 571.937C486.874 577.177 490.814 582.127 495.234 586.917C499.734 591.777 504.644 596.217 509.834 600.327L512.016 602.051C517.015 606.016 521.368 609.69 524.894 615.377C527.674 619.867 524.074 625.957 518.864 625.887C502.564 625.657 490.714 611.337 482.274 598.827C481.074 597.037 479.944 595.147 478.894 593.207C478.514 593.817 478.094 594.387 477.624 594.907L478.554 597.407C481.314 604.767 469.424 609.577 465.974 602.707C463.464 597.727 460.554 592.987 457.314 588.507C455.404 588.237 453.534 587.077 452.494 585.577C449.864 581.767 446.914 577.917 444.424 573.857C443.044 572.547 441.624 571.287 440.174 570.057C439.754 570.427 439.324 570.797 438.914 571.187C437.094 575.337 434.844 579.127 432.054 582.697L431.456 583.459C426.111 590.195 419.149 597.089 410.534 598.737C407.904 599.237 405.374 595.967 407.704 593.877C413.734 588.457 420.864 584.767 426.424 578.717C429.163 575.736 431.679 572.454 433.841 569.014L434.334 568.217C434.694 567.627 435.064 567.037 435.444 566.437C432.934 564.727 430.424 563.007 427.914 561.287C421.004 567.19 412.006 569.891 404.364 574.781L403.604 575.277C396.694 579.897 389.414 569.677 394.954 564.067C401.061 557.906 406.159 550.559 411.569 543.711C409.025 539.025 407.821 533.484 407.37 527.884C407.192 526.299 407.053 524.713 406.914 523.127C403.034 523.187 399.134 521.857 395.834 519.567L394.584 518.677C390.574 519.957 386.364 520.577 382.334 520.467C372.854 520.187 368.974 509.357 374.904 502.507C380.954 495.507 391.544 493.977 399.934 497.377C400.204 497.237 400.484 497.087 400.754 496.937C400.354 495.097 400.443 493.428 400.898 491.962L400.766 491.068C398.921 488.237 397.708 485.005 397.248 481.59C396.884 478.885 396.958 476.204 397.584 473.533C397.792 472.644 398.225 471.723 398.556 470.796C397.874 469.074 397.473 467.294 397.349 465.504C397.158 465.277 396.968 465.044 396.788 464.792C392.625 458.947 393.466 451.904 397.428 447.174C397.446 446.873 397.474 446.572 397.515 446.273C397.283 445.751 397.07 445.224 396.876 444.691C393.005 440.786 390.163 436.087 390.693 430.264C391.004 426.838 392.412 423.754 394.543 421.449C394.165 420.331 394.129 419.036 394.587 417.955C391.186 408.909 391.616 398.014 394.064 387.897C393.524 386.357 393.244 384.687 393.304 382.917C393.584 375.407 400.084 368.507 407.784 368.597C408.711 368.605 409.579 368.726 410.413 368.903L410.424 368.724C410.719 366.47 411.339 364.387 412.244 362.518C411.799 362.357 411.387 362.126 411.026 361.819C406.092 364.451 400.871 366.463 395.397 367.834C391.372 368.842 387.249 364.267 389.751 360.489C390.912 358.736 392.193 357.162 393.573 355.724C391.611 355.735 389.619 355.868 387.604 356.127C383.984 356.597 379.944 354.127 377.594 350.787C374.674 353.627 371.744 356.457 368.814 359.287C361.394 366.477 350.184 361.187 349.014 351.707C346.804 351.117 344.744 350.117 342.934 348.687C331.234 353.767 318.644 356.557 305.774 357.087C296.534 357.467 291.134 346.707 295.454 339.107C298.354 334.007 301.954 329.427 306.104 325.447C299.664 327.417 293.014 328.837 286.224 329.747C282.554 330.237 277.364 327.197 275.894 323.827C270.274 310.867 270.754 297.357 277.224 284.747C277.474 284.247 277.754 283.767 278.024 283.287C278.694 281.617 279.424 279.967 280.214 278.347C272.254 270.047 271.564 257.707 275.854 247.377C274.134 244.587 273.474 241.227 274.644 238.187C277.974 229.437 282.774 221.357 288.834 214.417C288.254 213.297 287.744 212.107 287.314 210.827C283.904 200.477 287.854 187.987 295.824 180.777C300.834 176.237 306.594 173.517 312.744 171.777C315.334 167.197 318.664 163.067 322.544 159.587C322.694 159.257 322.844 158.927 323.014 158.597C329.054 147.217 340.054 141.117 351.844 139.707C352.304 135.257 355.304 131.007 359.664 129.627C360.864 125.777 362.654 122.097 365.114 118.757C368.984 113.497 375.414 111.017 381.474 114.467C384.794 116.357 387.974 118.527 390.954 120.927C392.293 120.299 393.81 119.893 395.522 119.764L395.954 119.737L405.814 119.237C409.944 117.407 414.064 115.487 418.194 113.617C420.674 111.567 423.444 109.857 426.464 108.587C429.884 107.157 433.384 106.347 436.894 106.077C439.744 105.147 442.614 104.327 445.534 103.687C452.394 102.187 459.574 101.347 466.694 101.417C466.84 99.5742 466.912 97.7093 466.898 95.8224L466.884 94.8771C466.724 88.8271 471.554 83.9971 477.244 83.1371ZM470.334 567.187C469.354 567.397 468.364 567.567 467.374 567.687C467.674 568.427 467.974 569.167 468.264 569.907C469.064 570.357 469.874 570.787 470.684 571.187C470.444 569.827 470.304 568.457 470.334 567.187ZM418.957 551.92L418.292 553.144C418.185 553.345 418.078 553.542 417.974 553.737C419.384 553.627 420.804 553.657 422.204 553.817L422.2 553.668C422.02 553.607 421.84 553.551 421.668 553.467C420.702 553.003 419.804 552.483 418.957 551.92ZM446.724 496.067C455.571 496.582 463.067 497.939 471.113 501.809L471.804 502.147C478.914 505.677 490.674 512.197 489.684 521.547C489.404 524.207 487.474 527.007 484.434 526.797C476.104 526.227 471.344 517.827 465.704 512.587C460.014 507.307 453.024 501.877 446.134 498.247C445.16 497.736 445.544 496.119 446.604 496.066L446.724 496.067ZM406.604 372.877C404.484 372.947 405.194 375.007 406.284 373.287C406.374 373.147 406.484 373.007 406.604 372.877ZM521.04 235.355C500.962 235.883 480.755 247.738 465.714 259.721C452.629 270.146 441.33 282.546 431.325 295.911C428.751 302.567 426.541 309.362 424.674 316.207C423.444 320.727 422.674 325.297 421.644 329.857L421.324 331.255C420.515 332.767 419.914 334.394 419.476 336.075C421.299 337.903 423.664 339.212 426.268 339.833C427.107 340.033 427.804 340.466 428.355 341.04C430.451 337.542 432.283 333.85 433.349 329.936L433.388 329.755C437.417 323.156 441.793 316.762 446.484 310.587C459.424 293.537 473.674 277.997 490.804 265.067C503.794 255.267 518.314 247.587 533.754 242.597C529.975 239.548 525.683 237.136 521.04 235.355Z" fill="black"/>
<path fill-rule="evenodd" clip-rule="evenodd" d="M677.587 606.927C670.864 604.184 664.866 599.61 660.481 593.766C658.957 591.735 658.561 589.59 658.881 587.628C659.241 585.421 660.546 583.422 662.326 582.081C664.112 580.735 666.345 580.072 668.504 580.41C670.381 580.704 672.248 581.731 673.727 583.862L674.035 584.288C676.642 587.815 680.04 590.709 683.91 592.574C687.641 594.372 691.814 595.211 696.132 594.723C704.356 593.794 710.024 589.346 716.049 583.307C716.796 582.544 717.543 581.758 718.294 580.959C718.768 580.234 719.426 579.769 720.157 579.524C720.968 579.253 721.886 579.269 722.726 579.562C723.537 579.845 724.262 580.381 724.747 581.095C725.209 581.773 725.471 582.61 725.386 583.574C724.835 589.833 721.562 595.419 716.914 599.805C711.752 604.677 704.909 608.047 698.466 609.229C691.368 610.531 684.136 609.598 677.587 606.927V606.927ZM701.814 510.367C709.366 514.957 720.872 525.66 712.748 537.04C703.186 547.073 689.418 535.569 682.634 530.366C676.343 526.334 669.275 536.704 675.112 541.413C724.136 577.708 744.031 511.567 705.634 504.97C701.406 504.243 699.836 508.947 701.814 510.367ZM613.963 468.146C614.798 457.79 630.57 455.438 632.139 465.686C633.544 474.866 631.89 483.299 627.755 491.564C623.804 499.46 613.874 495.777 613.123 488.587C612.116 478.949 613.444 474.589 613.963 468.146ZM734.027 463.561C736.226 460.681 739.401 458.715 743.205 459.826C755.09 463.299 751.587 480.172 747.413 488.385C745.145 492.845 737.814 493.976 734.501 490.049C729.101 483.645 726.515 470.856 733.38 464.548C733.566 464.222 733.773 463.893 734.027 463.561ZM627.588 422.83L629.465 422.502C635.273 421.497 642.494 420.532 646.603 425.201C648.782 427.677 649.532 432.279 646.603 434.649C641.451 438.819 635.755 437.203 629.581 437.556C624.493 437.848 619.603 438.69 614.702 440.091C603.95 443.164 595.189 448.774 586.006 454.934C584.801 455.742 583.571 454.201 584.146 453.074C589.447 442.691 599.72 434.162 610.01 428.963C615.502 426.188 621.512 423.886 627.588 422.83ZM723.193 418.179L724.63 418.473C740.267 421.742 760.583 428.271 767.988 443.631C768.271 445.803 767.972 446.268 767.73 446.572L767.649 446.673C767.45 446.933 767.29 447.291 766.349 447.587C766.087 447.525 765.824 447.459 765.557 447.389C762.163 446.499 759.477 445.274 756.877 444.002L754.058 442.613C750.788 441.01 747.488 439.465 743.992 438.324C736.53 435.89 728.854 434.175 721.06 433.26C719.37 433.061 717.744 432.491 716.46 431.514C715.242 430.587 714.311 429.302 713.887 427.595C713.337 425.386 713.495 423.714 714.68 421.721C715.572 420.224 716.847 419.187 718.311 418.591C719.804 417.984 721.503 417.841 723.193 418.179Z" fill="black"/>
<path fill-rule="evenodd" clip-rule="evenodd" d="M867.718 955.928C864.576 947.302 869.164 938.698 871.709 930.353C880.75 901.412 890.621 872.47 904.587 845.48C909.877 836.452 901.174 825.376 891.089 827.922C873.824 830.34 856.021 828.415 838.726 827.348C832.401 810.984 815.52 804.196 802.234 794.772C787.157 785.362 772.491 774.554 756.811 766.304C755.939 758.509 746.487 756.577 740.707 762.153C724.832 752.278 705.795 754.112 688.778 747.642C675.848 726.741 674.878 704.764 671.454 684.601C669.962 675.812 671.547 667.331 665.541 659.495C645.366 631.12 565.65 618.817 536.259 635.632C520.438 625.765 520.057 643.635 517.544 654.664C514.751 660.182 513.24 666.431 513.707 673.015C496.713 708.51 457.834 724.557 423.015 737.556C418.647 733.353 412.404 733.884 408.248 737.362C378.068 743.923 348.777 755.456 323.491 773.464C294.763 781.866 274.531 805.231 259.901 830.284C258.289 832.925 257.909 835.618 258.38 838.091C213.391 904.038 191.919 982.987 188.903 1062.72C159.972 1080.09 202.654 1236.07 212.59 1268.45C212.6 1268.44 212.61 1268.44 212.62 1268.43C219.066 1279.85 226.385 1312.41 242.517 1309.89C253.583 1322.4 271.218 1319.94 286.235 1320.9C283.789 1330.29 284.991 1341.02 287.902 1350.29C291.345 1361.33 308.241 1361.7 310.637 1349.67C460.181 1378.72 613.62 1355.54 764.845 1359.9C808.569 1360.21 852.289 1361.57 895.908 1364.68C902.05 1365.12 908.277 1358.84 907.859 1352.73C898.481 1252.96 889.675 1121.71 879.188 1022.91C876.701 1000.38 874.733 977.602 867.718 955.928Z" fill="white"/>
<path fill-rule="evenodd" clip-rule="evenodd" d="M520.011 641.79C520.44 640.62 522.188 640.775 522.221 642.089C522.91 670.142 515.926 704.423 493.478 723.372C481.955 733.099 466.72 737.55 452.729 742.666L451.151 743.248L426.433 752.456C419.877 754.898 412.805 758.655 407.014 755.205C411.7 766.825 415.634 778.765 421.341 789.964C428.445 803.905 437.034 816.66 447.546 828.261C489.192 874.22 555.102 888.239 614.249 874.773C644.706 867.838 674.343 854.696 695.122 830.726C710.914 812.506 719.987 788.052 722.125 763.931C721.5 764.031 720.845 764.027 720.172 763.879C712.688 762.246 705.133 758.235 698.548 754.301L697.914 753.921C691.578 750.107 684.974 745.736 680.427 739.81C675.911 733.925 671.172 714.728 671.172 714.728C669.881 707.513 668.669 693.14 668.877 685.847C668.896 685.159 671.949 684.753 672.275 685.468C675.096 691.659 676.008 705.262 678.185 711.706L678.625 712.993C680.95 719.722 682.944 727.915 687.765 733.355C696.816 743.57 710.472 747.894 722.661 753.017C723.536 741.472 741.976 741.741 741.742 753.782C741.729 754.435 741.7 755.085 741.677 755.736C743.131 756.535 744.53 757.45 745.837 758.332L747.113 759.198C751.941 762.482 756.806 765.603 761.947 768.389C771.9 773.784 782.437 778.061 792.635 782.958C802.952 787.913 812.601 793.816 821.61 800.881C825.841 804.198 829.899 807.732 833.747 811.486L834.791 812.516C838.454 816.164 843.22 820.243 845.307 825.037C845.767 826.094 848.071 828.552 849.322 828.634C868.698 829.905 888.032 831.698 907.287 834.388C912.272 835.084 914.242 837.653 912.4 841.808C906.068 856.086 881.279 913.107 874.687 928.41C875.457 939.652 874.417 952.887 875.111 964.132C876.126 980.542 877.455 996.946 879.048 1013.31C884.748 1071.85 893.389 1130.1 901.197 1188.38C905.105 1217.55 908.668 1246.76 912.185 1275.98C913.961 1290.74 915.468 1305.52 916.628 1320.35C917.111 1326.53 917.549 1332.71 917.936 1338.9L918.269 1344.38C918.73 1351.29 919.785 1357.88 915.513 1363.81C913.576 1366.49 909.152 1368.01 906.605 1364.95C903.403 1361.11 902.213 1358.25 901.907 1353.2C901.673 1349.34 901.617 1345.47 901.441 1341.6C901.061 1333.23 900.583 1324.85 900.023 1316.49C898.906 1299.76 897.631 1283.04 896.154 1266.34C890.977 1207.79 881.138 1149.67 874.591 1091.27C871.291 1061.82 868.947 1032.32 867.706 1002.71C867.085 987.924 866.86 973.139 867.006 958.34C867.061 952.812 867.323 947.31 867.702 941.82C857.894 964.101 847.583 986.167 836.803 1007.94L834.248 1013.1C827.416 1026.86 820.401 1040.67 812.19 1053.65L810.779 1055.86C807.453 1061.13 802.909 1069.44 796.843 1071.1C792.618 1072.26 787.455 1071.44 783.123 1071.36C778.824 1071.28 774.52 1071.26 770.224 1071.08C765.405 1070.89 760.807 1070.26 756.15 1069C755.376 1068.79 754.644 1068.57 753.977 1068.28C749.285 1075.96 741.313 1081.81 733.162 1085.21C726.633 1087.94 719.79 1089.81 712.936 1091.54L710.517 1092.15C703.169 1093.98 694.763 1094.85 690.619 1101.95L689.656 1103.59C686.575 1108.83 683.619 1113.42 678.52 1117.18C673.031 1121.22 666.528 1123.76 660.05 1125.74C653.417 1127.76 646.629 1129.31 639.894 1130.97L638.059 1131.43C633.613 1132.54 629.127 1133.56 624.707 1134.77C622.822 1135.29 620.903 1135.82 619.053 1136.46C616.887 1137.2 615.313 1138.36 613.604 1139.63C612.068 1144.99 605.503 1147.91 600.105 1147.53C597.27 1147.34 594.727 1146.37 592.413 1144.96C588.374 1148.4 583.927 1151.48 579.81 1154.67C574.045 1159.13 568.257 1163.56 562.437 1167.94C550.437 1176.99 538.346 1185.91 526.129 1194.66C504.444 1210.19 482.29 1225.01 459.757 1239.28C450.362 1245.23 440.904 1251.17 431.353 1256.97L432.372 1257.35L434.394 1258.11C439.173 1259.9 444.498 1262.78 445.424 1268.35C446.158 1272.78 443.688 1275.82 439.322 1276.36C434.133 1277 430.095 1273.34 426.864 1269.84C425.438 1268.3 423.842 1266.86 422.476 1265.27C421.919 1264.62 421.491 1263.88 421.114 1263.09C411.688 1268.65 402.162 1274.01 392.485 1279.03L390.063 1280.28C366.066 1292.55 342.709 1305.99 318.508 1317.92C312.195 1321.03 304.498 1324.39 296.475 1326.69C298.604 1334.94 298.571 1344 298.625 1352.37C298.676 1360.54 285.705 1360.5 285.979 1352.37L286.111 1348.45C286.347 1341.85 286.733 1335.01 288.298 1328.59C264.659 1332.51 241.045 1323.99 236.648 1321.43C231.795 1318.61 227.39 1314.09 223.724 1309.9C215.879 1300.94 210.435 1290.19 205.605 1279.38C195.259 1256.22 187.929 1231.47 182.57 1206.71C162.813 1115.45 171.311 1017.77 203.396 930.28C211.412 908.421 220.876 887.044 231.721 866.441L233.067 863.894C243.889 843.519 255.917 823.222 271.196 805.884C287.11 787.825 306.741 773.78 328.115 762.878C338.546 757.558 349.279 752.947 360.249 748.861C362.011 748.204 363.785 747.615 365.563 747.054C376.995 739.766 390.869 732.794 404.748 733.068C405.691 733.085 406.455 733.443 407.025 733.982C407.694 734.099 408.363 734.241 409.033 734.436C410.512 734.865 412.074 736.486 411.862 738.151L411.79 738.705C411.751 738.975 411.701 739.237 411.617 739.492C412.113 739.566 412.6 739.684 413.077 739.847C426.356 736.097 439.421 730.362 452.379 725.736L455.33 724.694C466.183 720.89 477.317 717.163 486.22 709.636C495.077 702.148 501.737 692.449 506.552 681.964C512.484 669.046 515.14 655.052 520.011 641.79ZM785.87 1323.11C788.499 1321.15 791.608 1323.42 792.592 1325.85C795.822 1333.79 794.226 1346.14 789.673 1353.16C784.955 1360.44 773.662 1357.57 773.389 1348.75C773.104 1339.56 778.448 1328.64 785.87 1323.11ZM813.028 1103.72C813.264 1102.69 814.868 1102.7 815.108 1103.72C817.297 1113.05 817.246 1123.09 817.889 1132.64L817.963 1133.7C818.734 1144.25 819.382 1154.82 819.844 1165.37C820.751 1186.15 821.835 1206.93 823.05 1227.68C823.653 1237.98 824.299 1248.27 824.988 1258.56C827.146 1257.36 829.369 1256.3 831.673 1255.37C835.125 1253.98 838.486 1253.82 842.195 1253.85C846.712 1253.9 850.113 1257.87 849.515 1262.3C848.863 1267.12 844.62 1269.18 840.214 1268.49C835.334 1267.73 830.433 1266.55 825.506 1266.06C826.055 1274.01 826.622 1281.97 827.223 1289.92C828.02 1300.44 829.059 1310.95 829.789 1321.48C829.859 1322.49 829.934 1323.49 830.011 1324.5C832.949 1322.97 836.069 1322.19 839.605 1321.23L840.525 1320.97C845.659 1319.49 851.151 1317.46 855.903 1320.91C859.097 1323.23 859.735 1327.05 857.089 1330.11C853.077 1334.75 847.141 1333.85 841.599 1333.62L838.618 1333.51C835.808 1333.4 833.216 1333.22 830.619 1332.51C831.096 1339.37 831.347 1346.25 830.506 1353.01C830.051 1356.67 825.242 1357.62 823.969 1353.9C820.644 1344.16 819.957 1333.65 818.74 1323.45C817.604 1313.93 816.913 1304.33 816.169 1294.76L815.943 1291.89C814.269 1270.84 812.93 1249.77 811.952 1228.67C810.973 1207.58 810.385 1186.49 810.151 1165.37C810.045 1155.79 810.204 1146.16 810.579 1136.58L810.698 1133.7C811.13 1123.85 810.828 1113.38 813.028 1103.72ZM373.605 1324.66C373.733 1323.32 374.812 1321.64 376.417 1321.85C377.896 1322.04 379.42 1321.95 380.883 1322.2C382.814 1322.52 384.368 1323.66 386.164 1324.38C389.083 1325.54 392.265 1326.15 395.26 1327.1C400.879 1328.89 403.941 1334.81 401.614 1340.33C399.167 1346.14 393.018 1347.46 387.705 1345.02C383.517 1343.1 380.395 1340.03 377.579 1336.48L376.781 1335.46C375.568 1333.94 374.191 1332.23 373.682 1330.39C373.187 1328.58 373.431 1326.5 373.605 1324.66ZM646.602 1297.36C653.601 1296.38 659.579 1298.77 666.055 1301.03L666.581 1301.21C673.172 1303.48 682.789 1305.06 686.167 1311.81C688.205 1315.87 686.622 1321.28 681.826 1322.48C674.23 1324.38 667.42 1318.83 661.139 1315.1L660.809 1314.9C654.747 1311.35 648.49 1308.36 644.619 1302.24C643.586 1300.61 644.482 1297.66 646.602 1297.36ZM402.283 740.772C399.479 741.4 396.675 741.955 393.874 742.489C383.219 748.2 372.877 754.126 361.876 759.214C350.204 764.613 338.575 770.189 327.488 776.72C305.089 789.915 286.624 807.071 271.366 828.1C245.01 864.425 225.405 906.316 211.374 948.821C207.769 959.741 204.543 970.784 201.689 981.92C206.735 977.253 212.709 974.384 219.408 971.927C222.247 970.886 225.781 972.648 227.22 975.106C227.867 976.21 228.232 977.302 228.165 978.597C228.016 981.455 226.156 984.702 223.086 985.268C215.929 986.587 208.97 989.155 202.069 991.415C201.023 991.758 200.124 991.628 199.406 991.224C192.555 1020.24 188.269 1049.86 186.751 1079.65C185.467 1104.88 186.259 1130.3 189.053 1155.49C191.2 1154.52 193.3 1153.62 195.654 1153.07C198.707 1152.36 201.71 1151.5 204.688 1150.52C213.282 1147.7 217.202 1161.89 208.418 1164.05C205.149 1164.86 201.86 1165.52 198.529 1166.01C195.626 1166.44 193.058 1166.25 190.321 1165.81C192.412 1181.52 195.268 1197.12 198.906 1212.5L199.709 1215.87C204.434 1235.51 209.942 1255.33 217.907 1273.9C221.814 1283 226.987 1291.65 233.374 1299.24C236.512 1302.98 239.995 1306.18 243.793 1309.21C246.955 1311.73 257.703 1317.21 270.433 1317.21C283.162 1317.21 286.608 1316 293.031 1313.79C305.732 1309.42 317.791 1302.44 329.702 1296.23L330.934 1295.59C336.201 1292.86 341.448 1290.1 346.681 1287.31C346.02 1281.97 347.177 1277.49 349.957 1272.56C352.962 1267.23 360.408 1269.89 360.961 1275.34L360.979 1275.55C361.063 1276.78 361.269 1278.03 361.525 1279.28C396.516 1260.11 430.766 1239.6 464.471 1218.23C486.182 1204.46 507.662 1190.28 528.828 1175.69C539.409 1168.4 549.898 1160.97 560.283 1153.4C565.723 1149.43 571.138 1145.43 576.528 1141.4C578.773 1139.72 580.975 1137.96 583.225 1136.27C582.678 1135.58 582.145 1134.9 581.629 1134.22C573.227 1123.22 567.776 1110.11 565.06 1096.58C563.42 1088.42 562.628 1079.95 562.387 1071.63L562.281 1068.01C562.115 1061.91 562.071 1055.53 563.195 1049.63C561.666 1050.47 560.104 1051.29 558.547 1052.17C552.96 1055.34 547.368 1058.49 541.767 1061.64C530.551 1067.93 519.302 1074.15 507.91 1080.12C487.562 1090.78 467.014 1100.92 445.911 1110L435.643 1114.43C417.821 1122.1 399.855 1129.62 381.326 1135.32C370.875 1138.53 360.345 1141.28 349.744 1143.73L354.031 1148.75C356.938 1152.16 356.989 1157.04 353.274 1159.91C349.622 1162.73 344.722 1161.56 342.289 1157.81L337.854 1150.99C336.906 1149.53 336.368 1148.17 336.063 1146.73C331.18 1147.75 326.284 1148.73 321.374 1149.68L312.094 1151.45C298.841 1154.01 285.992 1159.07 274.147 1165.56C270.029 1167.81 268.882 1163.43 273.245 1160.38C286.002 1151.46 300.883 1146.42 316.238 1142.18L316.992 1141.97C322.625 1140.43 328.248 1138.82 333.859 1137.16C333.242 1134.92 332.886 1132.61 332.957 1130.05C333.115 1124.37 333.618 1118.66 333.92 1112.97C334.554 1101.04 335.363 1089.15 336.311 1077.24C336.675 1072.65 337.083 1068.05 337.55 1063.45C334.541 1061.84 331.946 1059.7 328.591 1058.64L328.025 1058.48C324.437 1057.51 325.648 1052.89 328.835 1052.49C331.722 1052.13 334.595 1052.3 337.441 1052.91C337.882 1053 338.299 1053.11 338.697 1053.23C339.22 1048.97 339.8 1044.73 340.459 1040.5C342.202 1029.35 343.435 1017.59 347.063 1006.87C347.332 1006.08 348.511 1005.79 348.948 1006.62C354.226 1016.66 354.409 1028.98 355.004 1040.16L355.078 1041.5C355.779 1053.7 355.819 1066.01 355.593 1078.23C355.361 1090.82 354.93 1103.37 354.365 1115.95C354.138 1121.01 354.147 1126.27 353.284 1131.11C384.692 1120.9 415.545 1108.68 445.118 1094.21C465.979 1084 486.66 1073.38 507.105 1062.37C517.349 1056.85 527.641 1051.42 537.874 1045.88C541.459 1043.94 545.042 1041.99 548.623 1040.04L553.994 1037.12C559.02 1034.37 563.215 1031.64 569.069 1031.45C570.814 1031.39 572.379 1032.21 573.49 1033.45C576.636 1031.22 580.272 1029.85 584.088 1029.88C589.832 1021.95 595.664 1014.08 601.728 1006.38L606.208 1000.68C613.962 990.846 622.175 980.864 632.063 973.38C636.476 970.041 641.33 967.536 646.392 965.466C645.201 965.175 644.035 964.59 642.996 963.626C638.161 959.143 637.495 950.816 636.513 944.56C635.494 938.073 635.888 932.267 636.894 925.801C637.285 923.288 641.447 922.765 642.463 925.073C644.604 929.939 646.871 934.603 648.819 939.524L649.394 941.009C651.485 946.549 655.939 952.377 655.645 958.387C655.565 960.034 655.013 961.469 654.161 962.623C658.41 961.212 662.72 959.954 666.964 958.642C680.321 954.515 693.729 950.504 707.343 947.302C710.967 946.45 714.609 945.659 718.266 944.933C720.182 935.837 722.974 926.909 726.266 918.142C723.149 916.545 721.131 913.868 718.447 911.487C715.935 909.257 714.209 906.542 712.066 903.982C710.115 901.653 711.211 897.445 714.717 897.581L715.71 897.622C719.342 897.791 722.86 898.167 726.154 899.862L727.327 900.467C728.937 901.302 730.698 902.26 732.267 903.391C734.318 898.672 736.45 893.998 738.606 889.371L741.403 883.388C748.655 867.816 755.888 851.652 764.993 837.152C769.041 830.706 774.428 826.681 782.16 826.058C790.122 825.417 798.4 826.245 806.373 826.53C815.616 826.861 824.856 827.253 834.09 827.738C831.723 825.259 829.563 822.499 827.186 820.12C823.24 816.175 819.071 812.435 814.689 808.978C806.016 802.137 796.48 796.5 786.575 791.646C776.668 786.791 766.47 782.558 757.17 776.56C751.285 772.765 746.025 767.989 741.226 762.821C738.205 795.411 722.468 825.689 698.826 848.437C674.27 872.062 640.336 885.042 607.14 890.563C573.28 896.195 537.941 894.128 505.55 882.359C488.849 876.29 472.831 867.62 458.546 856.745C458.389 857.691 458.2 858.626 457.829 859.505C457.331 860.686 456.722 861.692 456.024 862.73L454.778 864.55C453.993 865.695 453.192 866.83 452.301 867.892C450.142 870.463 447.083 871.589 443.788 871.577C437.479 871.556 432.701 865.37 434.399 859.252C435.466 855.407 437.749 853.093 441.313 851.588C442.439 851.112 443.587 850.713 444.742 850.321L445.609 850.027C446.776 849.628 447.934 849.247 449.135 849.026C442.371 843.056 436.095 836.564 430.475 829.558C412.848 807.587 395.462 776.816 401.355 747.637C401.457 747.136 401.908 746.821 402.394 746.741C402.736 744.693 403.826 742.712 405.319 741.38C404.314 741.116 403.301 740.912 402.283 740.772ZM585.322 1245.27C588.813 1243.33 592.419 1247.94 589.582 1250.79L585.346 1255.03C581.415 1258.98 577.589 1262.97 574.224 1267.47L573.409 1268.57C568.867 1274.75 564.023 1281.91 556.581 1284.22C547.579 1287.01 538.928 1276.05 544.141 1268.04C548.695 1261.04 557.464 1258.4 565.024 1255.5C572.176 1252.76 578.636 1248.98 585.322 1245.27ZM294.921 1212.96C296.972 1210.28 302.32 1211.69 300.919 1215.49C296.368 1227.83 294.513 1244.65 283.019 1252.85C279.311 1255.49 273.486 1254.28 270.433 1251.23C266.964 1247.76 266.825 1242.87 268.809 1238.64C271.228 1233.48 277.18 1229.74 281.352 1225.8L281.726 1225.45C286.214 1221.09 291.068 1218.01 294.921 1212.96ZM775.308 1227.16C778.969 1225.59 788.51 1222.52 791.338 1226.15C791.47 1226.28 791.583 1226.43 791.674 1226.59C792.367 1227.79 792.47 1229.49 791.674 1230.69C788.379 1235.64 784.947 1239.34 780.262 1242.86L779.737 1243.25C774.637 1247 769.846 1251.4 763.632 1253.1C755.019 1255.44 749.003 1244.66 755.052 1238.36C759.925 1233.29 767.365 1230.65 773.822 1227.82L775.308 1227.16ZM429.424 1156.66C427.983 1154.06 430.927 1150.87 433.593 1152.5C441.198 1157.14 450.057 1160.63 458.599 1163.14C462.056 1164.15 465.175 1167.65 464.918 1171.43L464.878 1172.01C464.776 1173.34 464.592 1174.67 463.743 1175.78C460.768 1179.67 456.512 1181.17 451.967 1178.87C441.838 1173.73 434.905 1166.57 429.424 1156.66ZM651.701 1148.78C651.516 1147.68 652.317 1146.84 653.43 1147.05C659.857 1148.27 665.793 1151.37 671.312 1154.94C674.272 1156.85 677.127 1158.96 680.08 1160.89C683.728 1163.28 685.094 1165.25 685.633 1169.63C685.989 1172.52 683.29 1175.16 680.815 1175.95C674.07 1178.13 666.341 1170.99 661.771 1166.35L661.565 1166.15C656.781 1161.27 652.835 1155.5 651.701 1148.78ZM844.732 1141.2C843.267 1137.25 848.316 1133.97 851.618 1135.91C854.727 1137.74 858.1 1139.26 861.033 1141.35C863.729 1143.28 866.186 1145.56 868.771 1147.65L870.048 1148.66C874.788 1152.47 882.612 1161.9 875.834 1167.36C869.384 1172.57 860.832 1165.92 856.502 1161.06L856.2 1160.72C853.709 1157.84 850.638 1154.72 848.831 1151.36C847.13 1148.19 845.976 1144.56 844.732 1141.2ZM781.122 834.957C773.043 836.525 769.75 846.497 766.348 852.997C758.319 868.337 750.935 883.958 743.519 899.599C741.236 904.41 739.013 909.258 736.77 914.097C736.633 914.476 736.457 914.849 736.25 915.218C731.655 925.111 726.923 934.939 721.392 944.33C726.454 943.382 731.542 942.574 736.649 941.938C736.391 937.129 739.684 930.694 741.312 926.646L741.448 926.305C743.479 921.117 745.608 912.945 750.836 910.253C752.578 909.357 754.441 910.48 754.575 912.398C754.971 918.108 749.386 924.643 746.656 929.489C745.005 932.421 743.396 935.366 741.828 938.343C741.24 939.457 740.749 940.552 740.146 941.534C742.78 941.249 745.417 940.995 748.061 940.81L749.784 940.692C759.586 940.046 769.997 939.861 778.853 944.695C787.07 949.178 791.27 958.749 786.756 967.464C781.132 978.321 768.748 979.76 757.858 980.64C744.256 981.737 730.623 983.718 717.117 985.65C703.147 987.648 689.992 992.798 676.23 995.445C674.95 995.691 674.153 994.017 675.327 993.302C686.182 986.694 699.38 983.058 711.516 979.354L712.498 979.054C719.081 977.032 725.515 974.722 732.325 973.575C738.936 972.462 745.588 971.56 752.256 970.874L752.903 970.814C760.245 970.198 778.974 970.409 778.183 959.539C777.659 952.345 765.965 951.103 760.627 951.017C736.153 950.625 711.503 957.121 688.244 964.081L683.051 965.638C673.527 968.503 663.99 971.452 654.645 974.811C644.055 978.617 635.712 984.552 627.999 992.675C619.447 1001.68 611.164 1010.89 602.292 1019.59C596.699 1025.08 591.034 1030.47 585.323 1035.82C584.033 1037.49 583.001 1039.3 582.286 1041.66C581.078 1045.64 581.356 1049.34 581.812 1053.43C582.962 1063.76 583.216 1074.2 584.657 1084.49C585.993 1094.03 587.861 1103.92 591.822 1112.77C593.39 1116.28 595.432 1119.72 597.756 1122.8L599.632 1125.24C600.45 1126.29 601.365 1127.45 602.326 1128.54C603.736 1126.82 605.776 1125.71 608.147 1125.99C613.186 1126.58 617.147 1126.44 622.09 1125.28C625.916 1124.38 629.712 1123.33 633.521 1122.36C641 1120.46 648.549 1118.72 655.952 1116.53L657.224 1116.15C662.741 1114.45 668.26 1112.33 672.852 1108.77C678.187 1104.63 679.828 1098.66 683.78 1093.5C692.218 1082.47 710.452 1082.7 722.798 1079.68C733.29 1077.12 743.387 1073.07 750.648 1065.46L751.072 1065C750.75 1063.65 751.272 1062.11 752.534 1061.41L752.809 1061.26C753.301 1060.98 753.831 1060.87 754.351 1060.88C755.025 1059.89 755.675 1058.87 756.266 1057.78C756.752 1056.88 757.967 1057.54 757.808 1058.43C757.713 1058.96 757.581 1059.47 757.456 1059.99C764.489 1058.18 772.214 1058.53 779.355 1058.53L788.622 1058.5C790.226 1058.48 792.616 1058.4 792.829 1058.3L793.047 1058.2C793.624 1057.95 792.804 1058.37 793.208 1057.83C793.653 1057.24 794.089 1056.64 794.519 1056.04C796.055 1053.89 797.508 1051.68 798.932 1049.44C783.413 1053.4 767.337 1055.86 751.491 1057.91C734.491 1060.11 717.267 1061.64 700.115 1061.65C695.387 1061.66 695.43 1054.52 700.115 1054.34C718.277 1053.65 736.344 1052.69 754.384 1050.36C763.713 1049.15 773.003 1047.64 782.241 1045.88C785.807 1045.19 789.365 1044.47 792.915 1043.71L795.575 1043.13C797.244 1042.76 801.96 1042.23 804.26 1040.68C804.712 1039.91 805.164 1039.13 805.612 1038.35C805.392 1035.63 798.464 1035.99 796.84 1035.99C792.235 1035.98 787.629 1036.02 783.023 1036.03C773.812 1036.06 764.602 1035.98 755.39 1035.9C736.986 1035.75 718.512 1035.11 700.123 1035.9C695.659 1036.09 693.314 1028.93 697.726 1027.05C717.204 1018.73 738.826 1016.92 759.624 1014.37C770.561 1013.02 781.504 1011.47 792.196 1008.75L794.839 1008.08C801.556 1006.36 808.973 1004.26 814.629 1000.15C806.128 996.715 795.561 997.109 786.749 996.622L786.075 996.583C773.736 995.825 761.375 995.437 749.013 995.419C723.719 995.384 698.417 996.28 673.151 997.479C672.517 997.509 672.386 996.508 673.002 996.374C698.971 990.708 725.364 987.978 751.94 987.558C764.317 987.362 776.7 987.537 789.066 988.084L793.604 988.294C804.148 988.748 815.847 988.871 824.669 995.238C826.014 996.208 826.723 997.447 826.834 998.758C838.665 975.175 849.592 951.099 860.563 927.183C869.092 908.587 877.303 889.835 886.143 871.384L889.005 865.415C892.837 857.45 896.763 849.484 901.122 841.808C884.821 839.629 868.429 838.116 852.027 836.958C837.081 835.901 788.317 833.562 781.122 834.957ZM773.903 1090.55C775.762 1089.52 778.61 1090.36 779.068 1092.65C779.409 1094.36 779.991 1096.25 779.991 1098C779.991 1100.09 779.243 1102.37 778.844 1104.41C777.927 1109.12 776.798 1112.94 774.405 1117.13C772.908 1119.76 769.885 1121.54 766.847 1121.47C764.441 1121.41 762.309 1120.77 760.658 1118.9C758.68 1116.67 757.322 1113.39 758.407 1110.39C761.249 1102.52 766.473 1094.68 773.903 1090.55ZM379.607 1082.7C383.957 1075.08 394.268 1068.27 403.266 1068.95C416.777 1069.96 419.534 1088.15 406.453 1092.49C398.634 1095.09 387.877 1092.42 381.037 1088.15C379.193 1087 378.517 1084.61 379.607 1082.7ZM240.747 1056.67C239.759 1055.23 241.392 1053.59 242.864 1053.92C246.129 1054.63 249.649 1054.95 252.847 1055.92C256.122 1056.92 259.292 1058.57 262.536 1059.71C269.332 1062.09 276.591 1063.28 283.168 1066.15C285.797 1067.3 287.865 1071.11 287.622 1073.92L287.56 1074.57C287.415 1075.97 287.174 1077.18 286.394 1078.46C284.301 1081.87 280.154 1083.64 276.24 1082.59C268.979 1080.64 261.884 1075.63 255.693 1071.46L254.549 1070.7C251.845 1068.92 248.936 1067.06 246.756 1064.76C244.481 1062.37 242.611 1059.38 240.747 1056.67ZM490.345 1028.96C489.509 1025.95 493.254 1023.96 495.437 1026C499.799 1030.06 504.36 1033.83 508.632 1038L508.919 1038.28C511.978 1041.35 516.429 1047.28 512.45 1051.26C507.352 1056.35 500.253 1048.79 497.518 1044.85C494.049 1039.85 491.968 1034.81 490.345 1028.96ZM824.15 1004.07C817.679 1010.93 807.709 1014.08 798.931 1016.69C788.523 1019.78 777.799 1021.63 767.064 1023.15C756.691 1024.62 746.398 1025.93 736.19 1027.62C743.912 1027.71 751.633 1027.77 759.337 1027.91C768.222 1028.07 777.102 1028.26 785.984 1028.52C792.453 1028.71 800.043 1027.82 806.19 1030.22C807.298 1030.66 808.333 1031.26 809.237 1031.99C814.405 1022.8 819.358 1013.48 824.15 1004.07ZM425.009 939.981C431.763 937.836 438.114 934.989 445.274 935.728C447.177 935.923 448.54 937.776 447.501 939.606C444.108 945.577 438.59 948.948 433.159 952.942L432.68 953.296C426.735 957.718 420.352 961.747 413.887 965.376C402.756 971.622 392.781 953.745 404.022 948.499C410.786 945.342 417.891 942.243 425.009 939.981ZM546.609 924.46C556.942 925.14 567.269 925.602 577.615 926.02C589.599 926.505 585.57 944.946 575.559 941.214C565.669 937.526 555.778 933.885 545.799 930.445C542.761 929.399 543.006 924.409 546.416 924.453L546.609 924.46ZM281.582 891.653C284.26 891.465 286.961 892.05 289.643 892.31L292.497 892.587C298.38 893.172 303.896 893.894 309.506 896.288C319.858 900.706 314.298 917.347 303.906 916.965C296.225 916.683 289.657 913.384 283.171 909.544C277.501 906.187 274.025 901.987 270.196 896.716C268.928 894.97 270.695 893.013 272.422 892.837C275.464 892.527 278.539 891.866 281.582 891.653ZM800.5 857.669C798.787 868.358 794.535 878.376 788.128 887.098C784.908 891.481 779.255 891.647 776.064 887.098C771.55 880.663 774.333 873.29 777.734 867.109L778.74 865.299C780.263 862.586 782.601 858.628 785.274 855.894L785.319 855.614C786.751 844.423 802.265 846.657 800.5 857.669ZM382.565 789.071C385.141 786.751 389.885 787.448 390.721 791.224C391.891 796.512 392.603 802.47 391.837 807.838C391.422 810.747 391.266 814.014 390.122 816.725C388.892 819.64 386.526 821.882 384.297 824.074C379.847 828.45 370.466 827.003 369.274 820.108L369.123 819.262C368.523 816 367.756 812.513 368.644 809.279C369.314 806.839 370.812 804.351 372.051 802.088L372.312 801.606C374.794 796.984 378.663 792.583 382.565 789.071ZM744.656 800.322L745.588 800.331C752.778 800.473 765.924 802.224 765.994 811.109C766.01 813.203 764.459 815.373 762.38 815.855C758.082 816.851 755.304 814.312 752.241 811.746C749.736 809.648 746.816 807.973 743.783 806.767C740.507 805.464 740.721 800.316 744.656 800.322Z" fill="black"/>
</svg>
