<svg width="882" height="588" viewBox="0 0 882 588" fill="none" xmlns="http://www.w3.org/2000/svg">
<g clip-path="url(#clip0_7_12664)">
<path d="M150.925 561.321L164.207 564.918L184.406 515.395L164.801 510.085L150.925 561.321Z" fill="#FFB6B6"/>
<path d="M146.703 575.051L187.551 586.115L187.691 585.598C188.833 581.381 188.253 576.884 186.079 573.095C183.905 569.306 180.315 566.535 176.099 565.393L176.098 565.392L170.17 557.711L154.715 559.601L151.149 558.635L146.703 575.051Z" fill="#393939"/>
<path d="M242.64 572.847L256.401 572.846L262.948 519.764L242.637 519.765L242.64 572.847Z" fill="#FFB6B6"/>
<path d="M242.155 587.203L284.474 587.201V586.666C284.474 582.297 282.738 578.108 279.649 575.019C276.56 571.93 272.371 570.194 268.002 570.194H268.001L260.271 564.33L245.848 570.195L242.154 570.195L242.155 587.203Z" fill="#393939"/>
<path d="M248.516 266.763L266.984 528.341L237.243 530.976L195.751 337.116L200.348 449.282L183.881 537.502L158.707 525.329L159.125 433.47L126.074 285.028L134.871 266.763H248.516Z" fill="#393939"/>
<path d="M130.292 299.309L130.107 299.05C120.251 285.251 135.075 252.092 137.311 247.285C134.656 246.423 132.382 244.668 130.875 242.318C129.369 239.968 128.724 237.168 129.05 234.396L130.014 226.203L131.019 218.167L123.821 210.97L123.801 210.79L119.659 174.548L113.637 150.476C111.368 141.376 111.561 131.836 114.197 122.835C116.833 113.835 121.817 105.698 128.637 99.2595L142.558 97.0491L159.475 80.7485H186.757L196.112 89.6859C213.574 92.7485 216.574 91.7485 231.574 109.749L224.758 165.711L223.058 173.41L223.063 183.852L227.386 188.656C228.943 190.386 230.075 192.457 230.69 194.702C231.306 196.947 231.389 199.305 230.932 201.587L230.364 204.43C234.822 206.34 239.076 240.295 240.093 245.038L241.611 252.123C242.91 253.837 251.484 265.269 251.484 268.394C251.484 268.863 251.137 269.317 250.394 269.82C244.551 273.776 221.256 301.842 206.963 296.123C191.738 290.035 131.216 299.168 130.606 299.261L130.292 299.309Z" fill="#3B53CE"/>
<path d="M126.626 234.234C126.626 234.234 133.632 194.639 126.574 179.749L98.5743 181.749L102.836 238.235L127.313 300.953C126.939 302.885 127.083 304.882 127.731 306.74C128.379 308.599 129.506 310.253 131 311.534C132.493 312.816 134.3 313.68 136.235 314.038C138.17 314.396 140.166 314.236 142.019 313.573C143.872 312.91 145.517 311.769 146.787 310.266C148.056 308.762 148.905 306.949 149.248 305.011C149.59 303.073 149.414 301.079 148.737 299.231C148.059 297.383 146.905 295.747 145.391 294.49L126.626 234.234Z" fill="#FFB6B6"/>
<path d="M98.5743 158.749L100.307 139.877C100.959 132.775 103.009 125.872 106.339 119.564C109.669 113.257 114.213 107.67 119.71 103.126C123.125 100.323 127.257 98.5308 131.637 97.9526C136.017 97.3744 140.472 98.0328 144.497 99.8535V99.8535C149.938 102.358 154.224 106.835 156.49 112.38C158.756 117.924 158.831 124.122 156.702 129.72C150.231 146.692 152.567 164.641 139.949 166.829L141.32 173.352L128.912 213.842L93.5742 209.749L98.5743 158.749Z" fill="#3B53CE"/>
<path d="M237.354 287.934C236.116 289.464 235.304 291.294 235.002 293.239C234.7 295.184 234.918 297.174 235.633 299.007C236.349 300.84 237.537 302.452 239.076 303.678C240.616 304.904 242.453 305.7 244.4 305.987C246.347 306.273 248.335 306.04 250.163 305.309C251.99 304.579 253.592 303.378 254.806 301.829C256.019 300.279 256.801 298.436 257.072 296.487C257.343 294.537 257.093 292.551 256.348 290.729L268.061 224.431L261.171 168.205L233.322 171.73C229.319 187.715 243.947 225.17 243.947 225.17L237.354 287.934Z" fill="#FFB6B6"/>
<path d="M271.561 194.682L237.71 205.621L224.677 185.289L224.743 178.625C211.94 178.951 203.647 143.95 193.975 128.575C190.79 123.503 189.65 117.41 190.785 111.529C191.92 105.649 195.247 100.418 200.091 96.8961V96.8961C203.682 94.3219 207.921 92.8033 212.33 92.512C216.738 92.2207 221.14 93.1682 225.039 95.2476V95.2476C231.32 98.6271 236.87 103.215 241.371 108.748C245.873 114.28 249.236 120.648 251.267 127.485L256.664 145.651L271.561 194.682Z" fill="#3B53CE"/>
<path d="M171.276 72.8739C188.009 72.8739 201.574 59.3088 201.574 42.5753C201.574 25.8418 188.009 12.2766 171.276 12.2766C154.542 12.2766 140.977 25.8418 140.977 42.5753C140.977 59.3088 154.542 72.8739 171.276 72.8739Z" fill="#FFB6B6"/>
<path d="M149.287 63.9314C149.023 63.6994 148.773 63.4518 148.515 63.2134C148.505 63.2378 148.504 63.2629 148.494 63.2873L149.287 63.9314Z" fill="#2F2E41"/>
<path d="M196.105 10.5799C194.6 8.15654 192.515 6.14615 190.038 4.73018C188.345 3.90914 186.566 3.27888 184.734 2.851L179.939 1.54271C177.482 0.782483 174.955 0.273545 172.395 0.0237115C168.841 -0.151631 165.307 0.653157 162.179 2.35016C159.051 4.04716 156.449 6.57111 154.658 9.64635C153.209 12.2159 152.047 15.4179 149.251 16.358C146.997 17.116 144.537 16.0468 142.168 16.2542C140.779 16.4554 139.462 16.996 138.332 17.828C137.203 18.6601 136.296 19.7579 135.692 21.0242C134.511 23.5725 133.93 26.3575 133.993 29.1655C133.9 35.5404 135.144 41.864 137.645 47.7285C140.147 53.593 143.849 58.868 148.515 63.2135C149.297 61.1522 148.009 58.9267 146.99 56.9548C145.96 54.9596 145.323 52.178 147.049 50.741C148.969 49.142 152.045 50.6926 154.316 49.6499C155.042 49.2326 155.654 48.6419 156.097 47.9305C156.539 47.2192 156.799 46.4093 156.852 45.5733C157.072 43.9165 156.842 42.2325 156.946 40.5645C157.049 38.9206 157.474 37.313 158.198 35.8335C158.921 34.3539 159.929 33.0314 161.164 31.9415C162.399 30.8516 163.837 30.0155 165.395 29.4811C166.953 28.9467 168.601 28.7243 170.244 28.8268C170.282 28.8292 170.32 28.8317 170.358 28.8344C175.526 29.2036 180.542 32.7353 185.516 31.2824C187.851 30.6004 189.842 28.8639 192.257 28.5718C194.931 28.2483 197.447 29.7575 199.717 31.2067C200.542 27.703 200.648 24.0684 200.027 20.5228C199.406 16.9773 198.072 13.5947 196.105 10.5799V10.5799Z" fill="#FF6584"/>
<path d="M354.432 570.18L346.722 557.79L345.182 564.87C344.912 566.11 344.642 567.37 344.392 568.62C342.202 566.75 339.872 565.02 337.592 563.36C330.592 558.28 323.596 553.193 316.602 548.1L318.792 560.8C320.142 568.62 321.552 576.6 324.892 583.75C325.262 584.56 325.662 585.36 326.092 586.14H358.632C358.894 585.416 359.075 584.664 359.172 583.9C359.18 583.851 359.184 583.8 359.182 583.75C359.692 578.9 357.012 574.33 354.432 570.18Z" fill="#F0F0F0"/>
<path d="M392.293 587.358L76.9356 587.665C76.6208 587.663 76.3195 587.537 76.0975 587.314C75.8755 587.091 75.7509 586.789 75.7509 586.474C75.7509 586.16 75.8755 585.858 76.0975 585.635C76.3195 585.411 76.6208 585.285 76.9356 585.284L392.293 584.976C392.608 584.978 392.909 585.104 393.131 585.327C393.353 585.55 393.478 585.852 393.478 586.167C393.478 586.482 393.353 586.784 393.131 587.007C392.909 587.23 392.608 587.356 392.293 587.358V587.358Z" fill="#CACACA"/>
<path d="M718.263 193.396C718.195 228.401 705.034 262.115 681.368 287.909C657.702 313.703 625.244 329.711 590.373 332.786C555.503 335.861 520.744 325.781 492.928 304.528C465.113 283.274 446.255 252.384 440.06 217.931C433.866 183.478 440.784 147.954 459.453 118.342C478.123 88.7308 507.194 67.1744 540.952 57.9107C574.71 48.6471 610.712 52.3463 641.88 68.2813C673.048 84.2163 697.129 111.234 709.387 144.023C709.692 144.847 709.99 145.67 710.28 146.501V146.509C711.574 150.164 712.714 153.886 713.7 157.676C716.74 169.339 718.273 181.343 718.263 193.396V193.396Z" fill="#3B53CE"/>
<path d="M561.667 98.1615C555.324 94.7312 548.281 92.7948 541.076 92.5C533.87 92.2053 526.693 93.5598 520.09 96.4605C514.277 98.9904 508.156 103.529 506.217 111.724C514.06 107.096 524.213 114.409 526.231 126.141L525.76 126.271C524.694 134.398 527.074 143.245 531.681 148.284C532.023 146.01 532.868 143.841 534.153 141.935C535.439 140.029 537.133 138.432 539.112 137.262C542.497 135.037 546.242 133.421 548.826 129.596C551.888 125.062 552.666 118.435 553.883 112.389C555.1 106.344 557.408 99.846 561.667 98.1615Z" fill="#A668E0"/>
<path d="M517.764 167.314C515.591 170.576 512.69 172.623 510.087 175.171C507.081 177.905 505.109 181.591 504.503 185.609C504.174 188.447 504.683 191.333 504.613 194.203C504.542 197.073 503.586 200.304 501.633 201.018C498.551 202.131 496.199 196.407 493.031 196.007C490.513 195.693 488.247 199.653 488.976 203.088C489.706 206.523 493.132 208.044 495.101 205.801C496.881 208.789 495.626 214.208 492.952 215.125C492.67 217.007 492.387 218.882 492.113 220.764C485.353 216.035 478.523 211.228 472.775 204.304C466.382 196.668 462.417 187.296 461.389 177.39C460.644 169.431 461.749 160.327 458.095 154.202C455.17 149.301 450.151 148.219 445.634 148.525C444.811 148.58 443.98 148.674 443.156 148.776C445.82 140.775 449.203 133.032 453.264 125.642C454.184 125.248 455.038 124.716 455.797 124.066C460.001 120.498 461.867 113.276 465.278 108.28C465.498 107.959 465.725 107.645 465.96 107.339C469.45 102.783 474.124 100.438 478.641 98.2584C488.639 93.4044 498.927 88.4876 509.482 89.1619L506.479 89.4521C502.974 99.2701 499.466 109.088 495.955 118.906C495.422 120.412 494.883 121.92 494.34 123.431C492.348 129.014 490.293 134.958 490.599 141.208C490.78 144.909 492.066 148.862 494.512 150.132C496.794 151.308 499.288 149.866 501.492 148.438C502.425 147.842 503.35 147.246 504.283 146.643C507.632 144.486 511.341 142.275 514.878 143.718C518.116 145.035 520.508 149.434 520.963 154.179C521.38 158.79 520.255 163.41 517.764 167.314Z" fill="#A668E0"/>
<path d="M537.679 234.343C527.899 228.322 518.119 222.301 508.34 216.279L508.506 215.852C502.425 218.168 499.901 228.976 500.906 237.815C501.911 246.654 505.318 254.555 507.039 263.168C509.36 274.954 508.484 287.146 504.502 298.479C517.362 284.05 528.742 268.368 538.473 251.668C539.833 249.563 540.868 247.267 541.546 244.854C542.264 242.284 542.008 239.539 540.828 237.145C540.027 235.964 538.945 235.001 537.679 234.343Z" fill="#A668E0"/>
<path d="M499.082 124.797C497.934 127.262 497.757 130.07 498.587 132.661C499.552 134.748 501.302 136.369 503.457 137.171L508.86 139.85C510.658 140.741 512.596 141.641 514.428 140.908C516.639 140.024 518.171 136.558 517.775 133.341C517.353 129.918 515.195 127.563 513.199 125.558C510.406 122.752 507.614 119.946 504.821 117.139L503.247 119.067C501.545 120.728 500.136 122.665 499.082 124.797V124.797Z" fill="#A668E0"/>
<path d="M689.296 161.393C691.727 161.966 694.158 162.538 696.589 163.11C696.165 171.321 692.095 178.92 686.638 181.672C684.363 182.817 681.831 183.24 679.948 185.381C678.247 187.326 677.384 190.353 676.592 193.246C675.204 198.297 673.816 203.347 672.428 208.397C670.938 213.839 669.025 219.885 665.151 221.846C661.826 223.532 658.023 221.469 655.466 218.011C652.91 214.553 651.349 209.903 649.836 205.37C649.93 210.31 647.632 215.157 644.378 216.874C641.116 218.591 637.148 217.039 634.968 213.204C633.399 210.451 632.748 206.821 631.211 204.029C629.674 201.237 626.452 199.638 624.773 202.257C623.668 203.998 623.809 206.664 623.26 208.875C622.983 210.343 622.256 211.689 621.18 212.725C620.103 213.761 618.731 214.435 617.253 214.655C615.894 214.624 614.556 214.316 613.32 213.751C612.083 213.186 610.975 212.376 610.062 211.369C605.26 206.457 602.134 200.152 601.13 193.356C600.45 190.098 600.536 186.726 601.381 183.507C602.346 180.457 604.675 178.104 606.988 178.684C608.509 175.469 605.506 171.203 602.8 171.58C600.087 171.956 597.962 174.865 595.735 177.1C593.516 179.335 590.41 180.958 588.175 178.739C588.225 179.551 587.951 180.349 587.412 180.958C586.874 181.568 586.115 181.938 585.303 181.988C585.223 181.993 585.143 181.995 585.062 181.993C583.576 181.567 582.195 180.835 581.008 179.845C575.887 176.653 569.386 178.77 565.748 184.809C568.022 175.132 571.355 164.028 578.342 161.754C581.196 160.82 584.309 161.589 587.007 159.973C591.783 157.111 592.747 146.297 588.622 141.835C589.148 146.054 589.046 150.979 586.819 153.865C584.592 156.751 579.918 154.869 580.2 150.603C580.137 151.203 579.885 151.767 579.482 152.215C579.078 152.664 578.542 152.973 577.952 153.098C577.362 153.223 576.747 153.159 576.196 152.913C575.645 152.668 575.186 152.254 574.884 151.732C573.402 149.473 573.527 145.78 574.578 143.082C575.661 140.639 577.215 138.433 579.15 136.589C582.875 132.598 586.654 128.559 590.967 126.05C595.288 123.541 600.276 122.694 604.604 125.187C606.886 126.505 608.894 128.701 611.223 129.861C611.77 130.201 612.379 130.429 613.015 130.533C613.65 130.638 614.3 130.616 614.927 130.469C615.554 130.322 616.146 130.053 616.669 129.677C617.193 129.302 617.637 128.827 617.976 128.279C618.003 128.237 618.028 128.195 618.053 128.151C619.786 125.109 618.971 120.592 619.614 116.789C620.766 110.068 627.487 106.924 631.212 111.362C628.428 110.649 625.55 113.942 625.205 117.934C624.852 121.925 626.867 125.956 629.565 127.164C634.097 129.171 638.536 124.121 641.963 119.447C645.539 114.554 649.12 109.663 652.706 104.775C653.279 103.943 653.921 103.161 654.627 102.438C655.75 101.343 657.248 100.717 658.816 100.685C660.384 100.652 661.906 101.218 663.073 102.266C666.696 105.222 668.397 111.284 671.37 115.456C675.683 121.517 682.136 122.992 688.143 124.168C692.621 125.038 697.101 125.914 701.584 126.795C704.572 132.354 707.179 138.111 709.387 144.024C701.166 147.772 694.193 153.8 689.296 161.393Z" fill="#A668E0"/>
<path d="M713.7 157.676C712.781 160.384 712.279 163.216 712.21 166.075C708.367 161.385 707.755 152.595 710.28 146.509C711.574 150.164 712.714 153.886 713.7 157.676Z" fill="#A668E0"/>
<path d="M703.772 255.746C700.412 262.568 696.505 269.106 692.088 275.296C689.265 274.088 686.23 276.244 683.587 278.268C680.827 280.385 677.51 282.447 674.679 280.518C671.785 278.542 670.852 273.014 671.769 268.63C672.824 264.586 674.668 260.791 677.196 257.463C679.548 253.95 682.066 250.304 685.336 248.939C688.614 247.575 692.825 249.504 693.781 254.162L696.103 254.083C694.801 252.295 695.483 248.594 697.232 247.943C699.247 247.183 700.996 249.951 702.188 252.397C702.721 253.503 703.262 254.617 703.772 255.746Z" fill="#A668E0"/>
<path d="M614.872 222.623C609.883 222.937 605.931 216.795 603.305 210.752C600.679 204.71 598.283 197.8 593.781 194.724C591.209 192.967 588.276 192.726 585.486 191.874C583.904 191.475 582.439 190.704 581.214 189.625C579.989 188.546 579.039 187.191 578.442 185.672L575.277 184.394C570.85 186.607 566.796 189.498 563.261 192.962C559.221 197.253 556.705 202.753 556.101 208.615C555.496 214.95 557.729 222.014 561.9 224.393C565.196 226.274 569.034 225.088 572.372 226.81C576.544 228.961 579.02 235.208 579.958 241.377C580.895 247.546 580.658 253.957 581.328 260.195C581.999 266.434 583.848 272.926 587.673 276.123C592.46 280.124 599.485 276.799 601.633 269.516C602.686 265.944 602.65 261.913 603.438 258.205C604.825 251.674 608.57 246.829 611.54 241.472C614.51 236.115 616.848 228.84 614.872 222.623Z" fill="#A668E0"/>
<path d="M565.571 158.452C566.037 158.88 566.471 159.341 566.871 159.831C567.284 160.545 567.496 161.357 567.482 162.182C567.468 163.007 567.229 163.812 566.791 164.511C567.392 164.476 567.979 164.318 568.516 164.045C569.052 163.772 569.527 163.391 569.909 162.926C570.819 161.889 571.62 160.761 572.299 159.559C572.618 159.147 572.846 158.673 572.967 158.166C573.089 157.66 573.101 157.133 573.004 156.622C572.768 155.949 572.211 155.662 571.82 155.156C571.278 154.167 570.909 153.093 570.727 151.98C570.51 150.937 570.007 149.975 569.273 149.203C568.54 148.43 567.606 147.877 566.576 147.606L566.826 147.654C566.4 147.906 566.064 148.285 565.865 148.738C565.666 149.191 565.613 149.696 565.715 150.18C565.866 151.158 566.495 151.971 566.432 152.969C566.342 154.404 564.908 155.077 564.819 156.513C564.806 157.233 565.076 157.93 565.571 158.452V158.452Z" fill="#A668E0"/>
<path d="M557.023 134.064L557.045 134.059C557.199 133.919 557.341 133.768 557.471 133.606L557.023 134.064Z" fill="#A668E0"/>
<path d="M558.519 140.8C559.119 140.274 559.562 139.594 559.801 138.833C560.04 138.073 560.065 137.261 559.874 136.487C559.512 134.855 558.229 133.758 557.045 134.059C556.702 134.407 556.276 134.662 555.807 134.8C555.338 134.938 554.842 134.955 554.365 134.849C553.633 134.66 552.83 134.175 552.196 134.726C551.833 135.138 551.579 135.634 551.457 136.169C551.222 136.89 550.987 137.611 550.752 138.332C550.641 138.59 550.612 138.876 550.669 139.151C550.714 139.261 550.787 139.358 550.88 139.432C550.973 139.506 551.084 139.555 551.202 139.574C552.611 139.99 554.02 140.405 555.428 140.82C555.914 141.044 556.442 141.158 556.976 141.154C557.51 141.151 558.037 141.03 558.519 140.8V140.8Z" fill="#A668E0"/>
<path d="M664.887 233.803C664.236 232.737 663.585 231.671 662.933 230.604C662.294 229.369 661.419 228.271 660.359 227.371C660.129 227.179 659.864 227.034 659.578 226.944C659.292 226.854 658.991 226.821 658.693 226.848C658.394 226.874 658.104 226.959 657.839 227.097C657.573 227.236 657.337 227.426 657.145 227.655L657.111 227.697L657.19 228.306C658.934 230.175 660.123 232.494 660.622 235.002C660.77 236.092 660.719 237.219 660.849 238.314C660.863 238.821 660.976 239.321 661.183 239.785C661.39 240.248 661.687 240.666 662.056 241.015C663.081 241.7 664.285 240.69 665.015 239.458C665.668 238.445 665.96 237.243 665.846 236.044C665.684 235.239 665.357 234.476 664.887 233.803V233.803Z" fill="#A668E0"/>
<path d="M675.105 235.191C675.229 234.193 675.148 233.18 674.866 232.214C674.82 230.907 675.166 229.617 675.861 228.509C676.551 227.464 677.073 226.318 677.41 225.111C677.552 224.562 677.526 223.982 677.336 223.448C677.12 222.963 676.598 222.742 676.299 223.126L676.94 223.539C676.074 223.384 675.185 223.427 674.338 223.665C673.855 223.85 673.424 224.148 673.081 224.535C672.738 224.922 672.493 225.386 672.367 225.887C672.261 226.669 672.088 227.441 671.85 228.193C671.468 228.979 670.727 229.24 670.262 229.93C669.945 230.542 669.785 231.222 669.797 231.911C669.808 232.6 669.99 233.275 670.328 233.876C670.912 234.858 671.84 235.589 672.933 235.925C673.716 236.205 674.746 236.22 675.105 235.191Z" fill="#A668E0"/>
<path d="M693.299 240.681C693.582 241.417 693.961 242.113 694.427 242.75C695.298 243.627 696.482 243.088 697.538 242.875C698.497 242.724 699.479 242.834 700.38 243.196C701.281 243.557 702.068 244.156 702.656 244.928C702.247 242.884 701.352 240.968 700.048 239.342C698.745 237.715 697.07 236.425 695.164 235.58C692.688 234.723 690.078 234.315 687.459 234.375L687.011 234.49C688.151 237.809 691.732 237.735 693.299 240.681Z" fill="#A668E0"/>
<path d="M616.237 247.47L616.244 247.484L616.374 247.233L616.237 247.47Z" fill="#A668E0"/>
<path d="M613.477 252.812C612.875 253.905 612.357 255.042 611.928 256.214C611.361 258.112 610.985 260.062 610.806 262.035C610.666 263.156 610.623 264.589 611.326 265.136C611.527 265.27 611.771 265.326 612.011 265.293C612.251 265.26 612.471 265.142 612.63 264.959C613.02 264.546 613.34 264.071 613.575 263.553C614.956 261.174 616.029 258.629 616.767 255.979C617.536 253.167 617.353 250.18 616.244 247.484C615.322 249.26 614.399 251.036 613.477 252.812Z" fill="#A668E0"/>
<path d="M586.849 110.471C587.287 110.899 587.842 111.19 588.443 111.308C589.045 111.425 589.668 111.364 590.236 111.132C591.411 110.618 592.489 109.906 593.422 109.027C594.195 108.455 594.851 107.739 595.354 106.92C595.631 106.43 595.808 105.89 595.876 105.331C595.944 104.772 595.901 104.206 595.749 103.664C595.533 103.145 595.188 102.689 594.747 102.34C594.306 101.991 593.784 101.761 593.229 101.67C591.665 101.206 590.101 100.742 588.537 100.279L589.668 99.2591C588.504 98.6345 587.216 99.7938 586.489 101.229C586.022 102.166 585.697 103.167 585.524 104.2C585.276 105.279 585.267 106.398 585.496 107.481C585.724 108.564 586.186 109.584 586.849 110.471V110.471Z" fill="#A668E0"/>
<path d="M614.46 101.202C614.9 101.688 615.51 101.988 616.164 102.041C616.817 102.094 617.467 101.896 617.981 101.488C618.423 101.156 618.79 100.735 619.058 100.251C619.327 99.7681 619.49 99.2337 619.538 98.683C619.649 97.4528 619.041 96.0855 618.172 95.9793L618.371 94.8275C616.697 94.5253 614.638 94.4647 613.741 96.497C613.439 97.2755 613.346 98.1197 613.472 98.9453C613.598 99.7709 613.939 100.549 614.46 101.202V101.202Z" fill="#A668E0"/>
<g opacity="0.35">
<path opacity="0.35" d="M879.214 200.35C888.449 196.323 869.72 193.979 848.471 193.208C827.221 192.438 801.516 192.48 787.937 190.288C774.803 188.168 775.771 184.398 774.666 180.983C773.562 177.567 768.513 174.065 748.02 173.306C722.483 172.36 680.37 176.001 661.093 173.815C643.103 171.775 653.797 165.375 627.564 165.13C612.585 164.99 593.288 167.1 576.62 167.609C564.806 168.122 552.969 167.504 541.272 165.766C533.148 164.435 527.49 162.748 518.347 161.572C494.342 158.485 447.378 159.523 405.461 163.479C363.543 167.435 327.612 173.918 307.349 180.339C287.085 186.76 281.486 193.082 286.207 198.443C289.221 201.866 296.934 205.067 315.644 206.443C350.639 209.016 412.946 204.587 449.108 206.928C469.263 208.233 478.204 211.467 495.888 213.237C514.886 215.139 542.698 215.24 570.023 215.195C626.917 215.101 685.266 214.516 744.764 213.444C769.615 212.997 795.655 212.414 822.099 210.281C848.543 208.147 875.515 204.03 881.094 200.17" fill="white"/>
</g>
<path d="M718.651 378.203C705.739 378.203 691.587 377.715 676.194 376.74C596.581 371.684 493.457 354.107 385.818 327.247C278.181 300.388 178.888 267.453 106.233 234.513C70.8404 218.466 43.6769 203.277 25.4977 189.365C6.25059 174.638 -2.16835 161.801 0.473718 151.213C5.62167 130.584 51.2047 126.071 88.5377 125.917L88.5504 128.917C37.2823 129.128 7.03674 137.304 3.38488 151.939C-1.26697 170.579 36.6715 199.68 107.472 231.781C179.967 264.649 279.077 297.52 386.545 324.337C494.012 351.154 596.946 368.7 676.385 373.745C753.964 378.673 801.128 370.808 805.779 352.167C809.641 336.691 784.181 313.892 734.09 287.969L735.469 285.305C771.866 304.141 814.114 331.157 808.691 352.894C806.048 363.483 792.585 370.859 768.675 374.817C755.046 377.073 738.305 378.203 718.651 378.203Z" fill="#A668E0"/>
<path d="M225.996 382.11C190.397 382.111 157.302 380.889 127.674 378.424C88.9476 375.201 58.2596 370.021 36.4637 363.028C13.387 355.622 1.14436 346.361 0.0755064 335.499C-2.00749 314.341 39.4095 294.775 74.5208 282.086L75.5404 284.908C27.3236 302.332 1.58336 320.195 3.06087 335.206C4.9427 354.325 50.453 368.988 127.923 375.434C207.248 382.034 311.64 379.696 421.87 368.844C532.1 357.995 634.946 339.938 711.461 317.998C786.187 296.573 827.966 273.319 826.084 254.199C824.522 238.325 792.882 225.406 736.992 217.821L737.396 214.848C778.006 220.36 826.875 231.61 829.07 253.906C830.139 264.767 819.936 276.238 798.747 287.999C778.732 299.109 749.643 310.172 712.288 320.882C635.603 342.87 532.569 360.963 422.164 371.83C352.905 378.647 285.919 382.11 225.996 382.11Z" fill="#A668E0"/>
<path d="M437.848 445.475C447.503 445.475 455.331 437.648 455.331 427.992C455.331 418.336 447.503 410.509 437.848 410.509C428.192 410.509 420.365 418.336 420.365 427.992C420.365 437.648 428.192 445.475 437.848 445.475Z" fill="#C192EC"/>
<path d="M93.5742 342.256C103.23 342.256 111.057 334.428 111.057 324.773C111.057 315.117 103.23 307.29 93.5742 307.29C83.9186 307.29 76.0912 315.117 76.0912 324.773C76.0912 334.428 83.9186 342.256 93.5742 342.256Z" fill="#E6E6E6"/>
<path d="M414.573 74.2747C420.484 74.2747 425.275 69.4831 425.275 63.5723C425.275 57.6616 420.484 52.87 414.573 52.87C408.662 52.87 403.871 57.6616 403.871 63.5723C403.871 69.4831 408.662 74.2747 414.573 74.2747Z" fill="#FF6584"/>
<path d="M349.82 155.065C359.475 155.065 367.303 147.238 367.303 137.582C367.303 127.926 359.475 120.099 349.82 120.099C340.164 120.099 332.337 127.926 332.337 137.582C332.337 147.238 340.164 155.065 349.82 155.065Z" fill="#E6E6E6"/>
</g>
<defs>
<clipPath id="clip0_7_12664">
<rect width="881.631" height="587.665" fill="white"/>
</clipPath>
</defs>
</svg>
